<mxfile host="app.diagrams.net" agent="Mozilla/5.0 (Windows NT 10.0; Win64; x64) AppleWebKit/537.36 (KHTML, like Gecko) Chrome/130.0.0.0 Safari/537.36" version="24.8.3">
  <diagram name="Seite-1" id="RuWV8B0luNGLt4jtG2s5">
    <mxGraphModel dx="1114" dy="592" grid="1" gridSize="10" guides="1" tooltips="1" connect="1" arrows="1" fold="1" page="1" pageScale="1" pageWidth="827" pageHeight="1169" math="0" shadow="0">
      <root>
        <mxCell id="0" />
        <mxCell id="1" parent="0" />
        <mxCell id="x-N0rN2jgi6zhMTK514o-3" value="" style="ellipse;shape=cloud;whiteSpace=wrap;html=1;fillColor=#000000;" vertex="1" parent="1">
          <mxGeometry x="146" y="87" width="410" height="370" as="geometry" />
        </mxCell>
        <mxCell id="x-N0rN2jgi6zhMTK514o-5" value="Actor" style="shape=umlActor;verticalLabelPosition=bottom;verticalAlign=top;html=1;outlineConnect=0;" vertex="1" parent="1">
          <mxGeometry x="100" y="200" width="40" height="80" as="geometry" />
        </mxCell>
        <mxCell id="x-N0rN2jgi6zhMTK514o-6" value="Binokelsoftware" style="text;html=1;align=center;verticalAlign=middle;whiteSpace=wrap;rounded=0;fontColor=#FFFFFF;fontStyle=5;fontSize=15;" vertex="1" parent="1">
          <mxGeometry x="290" y="130" width="80" height="40" as="geometry" />
        </mxCell>
        <mxCell id="x-N0rN2jgi6zhMTK514o-7" value="Actor" style="shape=umlActor;verticalLabelPosition=bottom;verticalAlign=top;html=1;outlineConnect=0;" vertex="1" parent="1">
          <mxGeometry x="600" y="160" width="40" height="80" as="geometry" />
        </mxCell>
        <mxCell id="x-N0rN2jgi6zhMTK514o-8" value="Actor" style="shape=umlActor;verticalLabelPosition=bottom;verticalAlign=top;html=1;outlineConnect=0;" vertex="1" parent="1">
          <mxGeometry x="90" y="390" width="40" height="80" as="geometry" />
        </mxCell>
        <mxCell id="x-N0rN2jgi6zhMTK514o-9" value="Actor" style="shape=umlActor;verticalLabelPosition=bottom;verticalAlign=top;html=1;outlineConnect=0;" vertex="1" parent="1">
          <mxGeometry x="580" y="377" width="40" height="80" as="geometry" />
        </mxCell>
        <mxCell id="x-N0rN2jgi6zhMTK514o-11" value="In Spielerliste aufnehmen" style="rounded=0;whiteSpace=wrap;html=1;fillColor=#000000;fontColor=#FFFFFF;" vertex="1" parent="1">
          <mxGeometry x="240" y="180" width="120" height="60" as="geometry" />
        </mxCell>
        <mxCell id="x-N0rN2jgi6zhMTK514o-12" value="In Spielerliste aufnehmen" style="rounded=0;whiteSpace=wrap;html=1;fillColor=#000000;fontColor=#FFFFFF;" vertex="1" parent="1">
          <mxGeometry x="360" y="180" width="120" height="60" as="geometry" />
        </mxCell>
      </root>
    </mxGraphModel>
  </diagram>
</mxfile>
